<svg width="12" height="14" viewBox="0 0 12 14" fill="none" xmlns="http://www.w3.org/2000/svg">
<path fill-rule="evenodd" clip-rule="evenodd" d="M6 14C9.31371 14 12 11.3137 12 8C12 4.68629 9.31371 2 6 2C2.68629 2 0 4.68629 0 8C0 11.3137 2.68629 14 6 14ZM6.85714 5C6.85714 4.52661 6.47339 4.14286 6 4.14286C5.52661 4.14286 5.14286 4.52661 5.14286 5V8C5.14286 8.22733 5.23316 8.44535 5.39391 8.60609L7.19391 10.4061C7.52864 10.7408 8.07136 10.7408 8.40609 10.4061C8.74083 10.0714 8.74083 9.52864 8.40609 9.19391L6.85714 7.64496V5Z" fill="#999999"/>
</svg>
