<svg width="12" height="14" viewBox="0 0 12 14" fill="none" xmlns="http://www.w3.org/2000/svg">
<path fill-rule="evenodd" clip-rule="evenodd" d="M6 14C9.31371 14 12 11.3137 12 8C12 4.68629 9.31371 2 6 2C2.68629 2 0 4.68629 0 8C0 11.3137 2.68629 14 6 14ZM7.26303 11C7.87305 11 8.40196 10.772 8.83132 10.3277C9.27703 9.84001 8.7401 9.36534 8.36664 9.09518C8.3347 9.07208 8.30167 9.04686 8.26739 9.02068C8.05226 8.85645 7.78799 8.65469 7.43728 8.70301C7.19492 8.76145 7.06316 8.91134 6.93488 9.05728C6.8172 9.19115 6.70245 9.32169 6.50793 9.3753C6.2175 9.43132 5.92708 9.26325 5.75283 9.09518C5.34623 8.81506 5.05581 8.47891 4.76539 8.08674C4.64922 7.91867 4.47496 7.63855 4.53305 7.35843C4.57274 7.24357 4.69381 7.15488 4.80357 7.07447C4.85443 7.03721 4.90286 7.00174 4.93964 6.96626C4.96201 6.94468 4.98654 6.9231 5.01197 6.90072C5.11862 6.8069 5.24125 6.69901 5.28815 6.51807C5.33823 6.17995 5.17242 5.92512 5.01409 5.68178C4.98878 5.64288 4.96366 5.60427 4.93964 5.56566C4.93376 5.55809 4.92775 5.55034 4.92161 5.54242C4.74572 5.31561 4.4632 4.95128 4.12645 5.00541C3.90511 5.07658 3.59589 5.38509 3.42944 5.56566C2.98462 6.0482 2.84859 6.96626 3.1971 7.7506C3.48752 8.42289 3.9522 8.98313 4.41688 9.48735C4.93964 9.99156 5.4624 10.4398 6.10133 10.7199C6.44984 10.888 6.79835 11 7.26303 11Z" fill="#999999"/>
</svg>
